<?xml version="1.0" encoding="UTF-8"?>
<!DOCTYPE svg PUBLIC "-//W3C//DTD SVG 1.1//EN" "http://www.w3.org/Graphics/SVG/1.1/DTD/svg11.dtd">
<svg xmlns="http://www.w3.org/2000/svg" version="1.1" width="432px" height="277px" style="shape-rendering:geometricPrecision; text-rendering:geometricPrecision; image-rendering:optimizeQuality; fill-rule:evenodd; clip-rule:evenodd" xmlns:xlink="http://www.w3.org/1999/xlink">
<g><path style="opacity:0.004" fill="#fefffe" d="M 38.5,1.5 C 39.8333,2.16667 39.8333,2.16667 38.5,1.5 Z"/></g>
<g><path style="opacity:0.004" fill="#fefffe" d="M 395.5,1.5 C 396.833,2.16667 396.833,2.16667 395.5,1.5 Z"/></g>
<g><path style="opacity:0.004" fill="#fefffe" d="M 260.5,3.5 C 261.833,4.16667 261.833,4.16667 260.5,3.5 Z"/></g>
<g><path style="opacity:0.004" fill="#fefffe" d="M -0.5,7.5 C 0.833333,8.16667 0.833333,8.16667 -0.5,7.5 Z"/></g>
<g><path style="opacity:0.004" fill="#fefffe" d="M 392.5,13.5 C 393.833,14.1667 393.833,14.1667 392.5,13.5 Z"/></g>
<g><path style="opacity:0.004" fill="#fefffe" d="M 350.5,16.5 C 351.833,17.1667 351.833,17.1667 350.5,16.5 Z"/></g>
<g><path style="opacity:0.004" fill="#fefffe" d="M 62.5,19.5 C 63.8333,20.1667 63.8333,20.1667 62.5,19.5 Z"/></g>
<g><path style="opacity:0.004" fill="#fefffe" d="M 356.5,21.5 C 357.833,22.1667 357.833,22.1667 356.5,21.5 Z"/></g>
<g><path style="opacity:0.733" fill="#ecb1aa" d="M 326.5,39.5 C 326.5,33.5 326.5,27.5 326.5,21.5C 319.783,22.629 313.117,23.9623 306.5,25.5C 313.219,22.4028 320.219,20.7362 327.5,20.5C 327.931,21.2935 328.265,22.1268 328.5,23C 327.898,28.6453 327.231,34.1453 326.5,39.5 Z"/></g>
<g><path style="opacity:0.004" fill="#fefffe" d="M 365.5,24.5 C 366.833,25.1667 366.833,25.1667 365.5,24.5 Z"/></g>
<g><path style="opacity:1" fill="#c54742" d="M 326.5,39.5 C 325.214,54.5036 323.881,69.5036 322.5,84.5C 322.973,64.826 323.639,45.1594 324.5,25.5C 323.022,25.238 321.689,25.5713 320.5,26.5C 321.575,29.438 321.741,32.438 321,35.5C 319.625,33.0632 319.125,30.3965 319.5,27.5C 316.65,27.3639 313.817,27.0305 311,26.5C 306.512,27.6084 302.012,28.6084 297.5,29.5C 300.5,28.1667 303.5,26.8333 306.5,25.5C 313.117,23.9623 319.783,22.629 326.5,21.5C 326.5,27.5 326.5,33.5 326.5,39.5 Z"/></g>
<g><path style="opacity:0.004" fill="#fefffe" d="M 422.5,25.5 C 423.833,26.1667 423.833,26.1667 422.5,25.5 Z"/></g>
<g><path style="opacity:0.004" fill="#fefffe" d="M 98.5,27.5 C 99.8333,28.1667 99.8333,28.1667 98.5,27.5 Z"/></g>
<g><path style="opacity:1" fill="#cf3f3a" d="M 322.5,84.5 C 322.5,89.5 322.5,94.5 322.5,99.5C 321.521,102.625 321.187,105.958 321.5,109.5C 322.251,110.573 323.251,110.74 324.5,110C 326.67,108.202 328.67,106.369 330.5,104.5C 330.804,105.15 331.137,105.817 331.5,106.5C 330.05,107.85 329.383,109.516 329.5,111.5C 330.675,111.719 331.675,111.386 332.5,110.5C 333.348,108.591 333.682,106.591 333.5,104.5C 336.334,103.442 339.001,102.276 341.5,101C 341.833,101.333 342.167,101.667 342.5,102C 340.983,103.685 339.316,105.185 337.5,106.5C 336.964,108.969 335.964,111.136 334.5,113C 340.167,113.333 345.833,113.667 351.5,114C 352.337,115.011 352.67,116.178 352.5,117.5C 347.156,117.334 341.823,117.501 336.5,118C 337.743,119.154 338.743,120.488 339.5,122C 343.188,121.546 346.855,121.713 350.5,122.5C 348.833,123.167 347.167,123.833 345.5,124.5C 345.863,125.183 346.196,125.85 346.5,126.5C 345.069,125.918 343.736,125.085 342.5,124C 337.738,123.515 333.071,124.015 328.5,125.5C 327.808,124.975 327.308,124.308 327,123.5C 326.097,124.701 324.931,125.535 323.5,126C 325.155,127.444 325.822,129.278 325.5,131.5C 324.5,133.167 323.167,134.5 321.5,135.5C 320.5,135.5 319.5,135.5 318.5,135.5C 316.765,150.747 316.098,166.08 316.5,181.5C 316.5,184.833 316.5,188.167 316.5,191.5C 314.735,194.123 314.068,197.123 314.5,200.5C 311.15,200.335 307.817,200.502 304.5,201C 303.944,201.383 303.611,201.883 303.5,202.5C 298.009,202.248 292.675,202.915 287.5,204.5C 285.833,204.5 284.167,204.5 282.5,204.5C 282.5,202.167 282.5,199.833 282.5,197.5C 288.149,198.76 293.482,198.594 298.5,197C 295.905,196.774 293.405,196.274 291,195.5C 290.667,195.833 290.333,196.167 290,196.5C 288.266,195.751 286.433,195.251 284.5,195C 283.978,194.439 283.645,193.772 283.5,193C 284.615,190.185 285.949,187.685 287.5,185.5C 287.715,181.982 286.881,181.649 285,184.5C 283.86,180.611 284.693,177.278 287.5,174.5C 286.27,172.067 285.27,169.567 284.5,167C 286.233,151.272 286.9,135.438 286.5,119.5C 286.5,116.833 286.5,114.167 286.5,111.5C 288.465,104.24 289.132,96.5729 288.5,88.5C 289.29,87.3915 289.79,86.0581 290,84.5C 290.074,67.0781 291.241,49.7447 293.5,32.5C 294.901,31.4793 296.235,30.4793 297.5,29.5C 302.012,28.6084 306.512,27.6084 311,26.5C 313.817,27.0305 316.65,27.3639 319.5,27.5C 319.125,30.3965 319.625,33.0632 321,35.5C 321.741,32.438 321.575,29.438 320.5,26.5C 321.689,25.5713 323.022,25.238 324.5,25.5C 323.639,45.1594 322.973,64.826 322.5,84.5 Z"/></g>
<g><path style="opacity:0.6" fill="#eeb2ab" d="M 306.5,25.5 C 303.5,26.8333 300.5,28.1667 297.5,29.5C 295.435,29.5172 293.435,29.8505 291.5,30.5C 296.041,27.8752 301.041,26.2085 306.5,25.5 Z"/></g>
<g><path style="opacity:0.004" fill="#fefffe" d="M 194.5,32.5 C 195.833,33.1667 195.833,33.1667 194.5,32.5 Z"/></g>
<g><path style="opacity:0.91" fill="#e29b92" d="M 152.5,33.5 C 149.833,34.8333 147.167,36.1667 144.5,37.5C 143.167,37.5 141.833,37.5 140.5,37.5C 144.085,35.1939 148.085,33.8606 152.5,33.5 Z"/></g>
<g><path style="opacity:1" fill="#c14d49" d="M 297.5,29.5 C 296.235,30.4793 294.901,31.4793 293.5,32.5C 291.241,49.7447 290.074,67.0781 290,84.5C 289.79,86.0581 289.29,87.3915 288.5,88.5C 289.055,76.8411 289.388,65.1745 289.5,53.5C 289.5,52.1667 289.5,50.8333 289.5,49.5C 290.747,43.3699 291.414,37.0365 291.5,30.5C 293.435,29.8505 295.435,29.5172 297.5,29.5 Z"/></g>
<g><path style="opacity:0.004" fill="#fefffe" d="M 125.5,39.5 C 126.833,40.1667 126.833,40.1667 125.5,39.5 Z"/></g>
<g><path style="opacity:0.678" fill="#e8a19f" d="M 140.5,37.5 C 139.514,39.4077 137.848,40.4077 135.5,40.5C 136.659,38.7497 138.326,37.7497 140.5,37.5 Z"/></g>
<g><path style="opacity:0.004" fill="#fefffe" d="M 281.5,41.5 C 282.833,42.1667 282.833,42.1667 281.5,41.5 Z"/></g>
<g><path style="opacity:0.706" fill="#e49d9b" d="M 132.5,42.5 C 131.738,44.2624 130.404,45.2624 128.5,45.5C 129.262,43.7376 130.596,42.7376 132.5,42.5 Z"/></g>
<g><path style="opacity:0.19" fill="#f5cac5" d="M 291.5,30.5 C 291.414,37.0365 290.747,43.3699 289.5,49.5C 289.156,42.9176 289.823,36.5843 291.5,30.5 Z"/></g>
<g><path style="opacity:1" fill="#cf3f3a" d="M 169.5,89.5 C 169.5,94.8333 169.5,100.167 169.5,105.5C 168.778,105.918 168.278,106.584 168,107.5C 167.201,116.49 166.534,125.49 166,134.5C 164.792,136.479 163.959,138.645 163.5,141C 164.464,151.127 164.797,161.293 164.5,171.5C 164.323,181.506 163.99,191.506 163.5,201.5C 161.761,208.588 161.094,215.921 161.5,223.5C 150.479,224.28 139.479,225.28 128.5,226.5C 128.5,219.5 128.5,212.5 128.5,205.5C 128.5,204.833 128.5,204.167 128.5,203.5C 130.099,189.365 130.766,175.032 130.5,160.5C 131.117,160.389 131.617,160.056 132,159.5C 132.5,153.175 132.666,146.842 132.5,140.5C 133.404,141.209 133.737,142.209 133.5,143.5C 134.833,143.5 136.167,143.5 137.5,143.5C 136.594,140.564 135.928,137.564 135.5,134.5C 136.873,134.657 138.207,134.49 139.5,134C 138.786,132.657 139.12,131.324 140.5,130C 135.697,130.361 133.363,128.194 133.5,123.5C 135.596,103.875 136.929,84.0421 137.5,64C 137.498,60.9792 137.164,58.1459 136.5,55.5C 135.508,55.3284 134.842,55.6618 134.5,56.5C 133.448,56.3505 132.448,56.5172 131.5,57C 129.826,58.5059 128.826,60.3393 128.5,62.5C 127.094,62.9731 126.427,63.9731 126.5,65.5C 126.5,66.1667 126.167,66.5 125.5,66.5C 124.5,66.5 123.5,66.5 122.5,66.5C 121.833,69.1667 121.167,71.8333 120.5,74.5C 119.292,75.2341 117.959,75.5674 116.5,75.5C 114.833,80.8333 113.167,86.1667 111.5,91.5C 110.127,91.3433 108.793,91.51 107.5,92C 108.056,92.3826 108.389,92.8826 108.5,93.5C 107.956,95.5795 107.122,97.5795 106,99.5C 103.055,97.8161 102.888,95.9828 105.5,94C 105.333,92.5 104.5,91.6667 103,91.5C 101.681,92.3185 100.515,93.3185 99.5,94.5C 100.019,97.8001 101.352,100.633 103.5,103C 102.093,109.499 100.759,115.999 99.5,122.5C 102.637,127.069 101.304,129.403 95.5,129.5C 94.6343,125.446 93.4677,121.446 92,117.5C 90.2105,115.135 88.0439,113.468 85.5,112.5C 86.2735,116.775 84.7735,119.775 81,121.5C 80.3623,122.609 79.8623,123.775 79.5,125C 80.7759,128.264 82.2759,131.431 84,134.5C 84.6385,131.464 84.4718,128.464 83.5,125.5C 83.7556,124.311 84.0889,123.144 84.5,122C 84.8499,120.743 85.5165,120.409 86.5,121C 87.2372,124.618 88.2372,128.118 89.5,131.5C 94.0446,129.882 95.5446,131.549 94,136.5C 93.586,136.043 93.086,135.709 92.5,135.5C 90.2531,138.827 88.7531,138.827 88,135.5C 87.6667,137.833 87.3333,140.167 87,142.5C 81.2931,142.969 80.4598,144.969 84.5,148.5C 85.324,146.252 86.324,146.086 87.5,148C 86.2591,151.124 85.0924,154.291 84,157.5C 82.3975,155.292 81.0642,152.959 80,150.5C 77.7426,153.438 76.576,156.771 76.5,160.5C 75.5,160.5 74.5,160.5 73.5,160.5C 74.7755,157.664 75.4422,154.664 75.5,151.5C 74.5,151.5 73.5,151.5 72.5,151.5C 70.8528,152.845 71.1861,150.512 73.5,144.5C 74.8221,144.67 75.9887,144.337 77,143.5C 77.2868,141.109 77.7868,138.776 78.5,136.5C 77.199,133.573 76.199,130.573 75.5,127.5C 74.1667,127.5 72.8333,127.5 71.5,127.5C 71.7135,129.144 71.3802,130.644 70.5,132C 75.7278,136.195 75.3945,140.028 69.5,143.5C 70.7196,141.718 71.3862,139.718 71.5,137.5C 71.5,136.833 71.5,136.167 71.5,135.5C 66.7056,134.362 61.8722,134.696 57,136.5C 56.5,136 56,135.5 55.5,135C 58.6115,133.397 61.6115,131.563 64.5,129.5C 65.5896,128.609 65.5896,127.609 64.5,126.5C 65,126.167 65.5,125.833 66,125.5C 68.9995,125.786 72.1662,125.786 75.5,125.5C 75.3505,124.448 75.5172,123.448 76,122.5C 77.676,121.939 79.0094,120.939 80,119.5C 81.2229,116.053 82.7229,112.72 84.5,109.5C 85.1556,107.547 85.4889,105.547 85.5,103.5C 88.4152,101.349 90.0819,98.3494 90.5,94.5C 91.3764,94.6309 92.0431,94.2975 92.5,93.5C 94.2135,90.4716 95.8802,87.4716 97.5,84.5C 97.5,83.8333 97.5,83.1667 97.5,82.5C 101.602,81.3913 103.269,78.7246 102.5,74.5C 104.587,73.4154 105.92,71.7488 106.5,69.5C 107.906,69.0269 108.573,68.0269 108.5,66.5C 110.262,65.7377 111.262,64.4044 111.5,62.5C 111.833,61.5 112.5,60.8333 113.5,60.5C 116.573,58.4309 118.906,55.7642 120.5,52.5C 123.764,50.9059 126.431,48.5725 128.5,45.5C 130.404,45.2624 131.738,44.2624 132.5,42.5C 132.973,41.0937 133.973,40.427 135.5,40.5C 137.848,40.4077 139.514,39.4077 140.5,37.5C 141.833,37.5 143.167,37.5 144.5,37.5C 147.688,37.3822 150.688,36.5489 153.5,35C 159.825,34.5005 166.158,34.3338 172.5,34.5C 170.72,52.7538 169.72,71.0871 169.5,89.5 Z M 134.5,56.5 C 135.483,60.2984 135.817,64.2984 135.5,68.5C 134.454,81.1447 133.787,93.8114 133.5,106.5C 132.787,111.368 132.121,116.368 131.5,121.5C 128.956,121.949 126.29,121.949 123.5,121.5C 118.402,120.043 113.069,119.376 107.5,119.5C 106.081,118.549 104.415,118.216 102.5,118.5C 102.5,117.5 102.5,116.5 102.5,115.5C 104.601,112.203 105.935,108.537 106.5,104.5C 108.065,102.491 109.065,100.157 109.5,97.5C 112.419,91.9924 115.086,86.3258 117.5,80.5C 118.674,79.4863 119.34,78.153 119.5,76.5C 120.338,76.1583 120.672,75.4916 120.5,74.5C 122.664,72.178 124.331,69.5113 125.5,66.5C 126.167,66.5 126.5,66.1667 126.5,65.5C 127.906,65.0269 128.573,64.0269 128.5,62.5C 131.167,61.1667 133.167,59.1667 134.5,56.5 Z"/></g>
<g><path style="opacity:0.306" fill="#f7ccc5" d="M 326.5,39.5 C 325.755,62.2033 324.422,84.5366 322.5,106.5C 322.5,104.167 322.5,101.833 322.5,99.5C 322.5,94.5 322.5,89.5 322.5,84.5C 323.881,69.5036 325.214,54.5036 326.5,39.5 Z"/></g>
<g><path style="opacity:0.808" fill="#df9e94" d="M 128.5,45.5 C 126.431,48.5725 123.764,50.9059 120.5,52.5C 122.569,49.4275 125.236,47.0941 128.5,45.5 Z"/></g>
<g><path style="opacity:0.004" fill="#fefffe" d="M 218.5,49.5 C 219.833,50.1667 219.833,50.1667 218.5,49.5 Z"/></g>
<g><path style="opacity:0.004" fill="#fefffe" d="M 425.5,53.5 C 426.833,54.1667 426.833,54.1667 425.5,53.5 Z"/></g>
<g><path style="opacity:0.004" fill="#fefffe" d="M 368.5,54.5 C 369.833,55.1667 369.833,55.1667 368.5,54.5 Z"/></g>
<g><path style="opacity:0.827" fill="#de9b94" d="M 120.5,52.5 C 118.906,55.7642 116.573,58.4309 113.5,60.5C 115.094,57.2358 117.427,54.5691 120.5,52.5 Z"/></g>
<g><path style="opacity:0.89" fill="#dd8c8b" d="M 134.5,56.5 C 133.167,59.1667 131.167,61.1667 128.5,62.5C 128.826,60.3393 129.826,58.5059 131.5,57C 132.448,56.5172 133.448,56.3505 134.5,56.5 Z"/></g>
<g><path style="opacity:1" fill="#d77870" d="M 171.5,84.5 C 170.833,86.1667 170.167,87.8333 169.5,89.5C 169.72,71.0871 170.72,52.7538 172.5,34.5C 166.158,34.3338 159.825,34.5005 153.5,35C 150.688,36.5489 147.688,37.3822 144.5,37.5C 147.167,36.1667 149.833,34.8333 152.5,33.5C 159.763,31.9372 166.93,32.2705 174,34.5C 173.989,51.2102 173.156,67.8769 171.5,84.5 Z"/></g>
<g><path style="opacity:0.059" fill="#fceceb" d="M 382.5,62.5 C 384.364,61.2072 386.364,61.2072 388.5,62.5C 388.376,63.1067 388.043,63.44 387.5,63.5C 386.081,62.5489 384.415,62.2155 382.5,62.5 Z"/></g>
<g><path style="opacity:0.004" fill="#fefffe" d="M 194.5,62.5 C 195.833,63.1667 195.833,63.1667 194.5,62.5 Z"/></g>
<g><path style="opacity:0.004" fill="#fefffe" d="M 245.5,62.5 C 246.833,63.1667 246.833,63.1667 245.5,62.5 Z"/></g>
<g><path style="opacity:0.808" fill="#eeaba6" d="M 111.5,62.5 C 111.262,64.4044 110.262,65.7377 108.5,66.5C 108.738,64.5956 109.738,63.2623 111.5,62.5 Z"/></g>
<g><path style="opacity:0.02" fill="#f3d5d2" d="M 128.5,62.5 C 128.573,64.0269 127.906,65.0269 126.5,65.5C 126.427,63.9731 127.094,62.9731 128.5,62.5 Z"/></g>
<g><path style="opacity:0.682" fill="#f6bcb8" d="M 380.5,62.5 C 380.5,62.8333 380.5,63.1667 380.5,63.5C 376.534,64.1621 372.534,64.4955 368.5,64.5C 372.295,63.3833 376.295,62.7167 380.5,62.5 Z"/></g>
<g><path style="opacity:0.004" fill="#fefffe" d="M 17.5,64.5 C 18.8333,65.1667 18.8333,65.1667 17.5,64.5 Z"/></g>
<g><path style="opacity:0.208" fill="#ffdbd2" d="M 134.5,56.5 C 134.842,55.6618 135.508,55.3284 136.5,55.5C 136.818,60.0323 136.485,64.3656 135.5,68.5C 135.817,64.2984 135.483,60.2984 134.5,56.5 Z"/></g>
<g><path style="opacity:1" fill="#d37c73" d="M 380.5,63.5 C 380.5,63.1667 380.5,62.8333 380.5,62.5C 381.167,62.5 381.833,62.5 382.5,62.5C 384.415,62.2155 386.081,62.5489 387.5,63.5C 384.833,66.8333 381.833,69.8333 378.5,72.5C 378.5,71.1667 378.5,69.8333 378.5,68.5C 380.942,68.6463 381.609,67.813 380.5,66C 381.328,65.0853 382.328,64.4186 383.5,64C 382.552,63.5172 381.552,63.3505 380.5,63.5 Z"/></g>
<g><path style="opacity:1" fill="#dd8881" d="M 125.5,66.5 C 124.331,69.5113 122.664,72.178 120.5,74.5C 121.167,71.8333 121.833,69.1667 122.5,66.5C 123.5,66.5 124.5,66.5 125.5,66.5 Z"/></g>
<g><path style="opacity:1" fill="#cc534b" d="M 380.5,63.5 C 381.552,63.3505 382.552,63.5172 383.5,64C 382.328,64.4186 381.328,65.0853 380.5,66C 381.609,67.813 380.942,68.6463 378.5,68.5C 378.5,69.8333 378.5,71.1667 378.5,72.5C 375.859,74.8044 373.192,77.1377 370.5,79.5C 370.33,78.1779 370.663,77.0113 371.5,76C 370.692,75.6924 370.025,75.1924 369.5,74.5C 371.328,73.2048 373.328,72.2048 375.5,71.5C 374.975,70.8076 374.308,70.3076 373.5,70C 375.135,68.2518 377.135,67.0851 379.5,66.5C 378.5,66.1667 377.5,65.8333 376.5,65.5C 372.845,66.0819 369.178,66.5819 365.5,67C 364.211,68.8022 362.544,69.9688 360.5,70.5C 362.269,67.7234 364.602,65.7234 367.5,64.5C 367.833,64.5 368.167,64.5 368.5,64.5C 372.534,64.4955 376.534,64.1621 380.5,63.5 Z"/></g>
<g><path style="opacity:0.004" fill="#fefffe" d="M 386.5,67.5 C 387.833,68.1667 387.833,68.1667 386.5,67.5 Z"/></g>
<g><path style="opacity:0.573" fill="#e6a99a" d="M 108.5,66.5 C 108.573,68.0269 107.906,69.0269 106.5,69.5C 106.427,67.9731 107.094,66.9731 108.5,66.5 Z"/></g>
<g><path style="opacity:0.004" fill="#fefffe" d="M 356.5,68.5 C 357.833,69.1667 357.833,69.1667 356.5,68.5 Z"/></g>
<g><path style="opacity:0.004" fill="#fefffe" d="M 86.5,69.5 C 87.8333,70.1667 87.8333,70.1667 86.5,69.5 Z"/></g>
<g><path style="opacity:0.494" fill="#eeb4b0" d="M 367.5,64.5 C 364.602,65.7234 362.269,67.7234 360.5,70.5C 359.167,71.5 357.833,72.5 356.5,73.5C 358.707,68.6185 362.374,65.6185 367.5,64.5 Z"/></g>
<g><path style="opacity:0.004" fill="#fefffe" d="M 102.5,72.5 C 101.833,71.1667 101.833,71.1667 102.5,72.5 Z"/></g>
<g><path style="opacity:0.737" fill="#e8a29d" d="M 106.5,69.5 C 105.92,71.7488 104.587,73.4154 102.5,74.5C 102.5,73.8333 102.5,73.1667 102.5,72.5C 103.833,71.5 105.167,70.5 106.5,69.5 Z"/></g>
<g><path style="opacity:0.086" fill="#f4c2be" d="M 289.5,53.5 C 289.388,65.1745 289.055,76.8411 288.5,88.5C 288.167,88.5 287.833,88.5 287.5,88.5C 287.578,76.574 288.245,64.9073 289.5,53.5 Z"/></g>
<g><path style="opacity:0.004" fill="#fefffe" d="M 209.5,77.5 C 210.833,78.1667 210.833,78.1667 209.5,77.5 Z"/></g>
<g><path style="opacity:0.192" fill="#f7cfcb" d="M 119.5,76.5 C 119.34,78.153 118.674,79.4863 117.5,80.5C 117.229,78.6203 117.896,77.287 119.5,76.5 Z"/></g>
<g><path style="opacity:0.486" fill="#f3bfb8" d="M 244.5,76.5 C 243.5,77.1667 242.5,77.8333 241.5,78.5C 238.833,78.8333 236.167,79.1667 233.5,79.5C 236.854,77.7424 240.521,76.7424 244.5,76.5 Z"/></g>
<g><path style="opacity:0.004" fill="#fefffe" d="M 263.5,78.5 C 264.833,79.1667 264.833,79.1667 263.5,78.5 Z"/></g>
<g><path style="opacity:0.004" fill="#fefffe" d="M 26.5,79.5 C 27.8333,80.1667 27.8333,80.1667 26.5,79.5 Z"/></g>
<g><path style="opacity:1" fill="#d3736d" d="M 102.5,74.5 C 103.269,78.7246 101.602,81.3913 97.5,82.5C 98.6693,79.4887 100.336,76.822 102.5,74.5 Z"/></g>
<g><path style="opacity:0.004" fill="#fefffe" d="M 188.5,80.5 C 189.833,81.1667 189.833,81.1667 188.5,80.5 Z"/></g>
<g><path style="opacity:0.004" fill="#fefffe" d="M 263.5,80.5 C 264.833,81.1667 264.833,81.1667 263.5,80.5 Z"/></g>
<g><path style="opacity:1" fill="#d87b72" d="M 370.5,79.5 C 366.108,84.8943 361.108,89.561 355.5,93.5C 355.5,92.8333 355.5,92.1667 355.5,91.5C 355.389,90.8826 355.056,90.3826 354.5,90C 358.898,90.5922 360.898,88.7589 360.5,84.5C 361.5,84.5 362.5,84.5 363.5,84.5C 363.64,82.8762 362.973,81.7096 361.5,81C 363.235,80.3486 364.902,80.5153 366.5,81.5C 367.524,80.1468 368.857,79.4802 370.5,79.5 Z"/></g>
<g><path style="opacity:0.596" fill="#f4bcb5" d="M 233.5,79.5 C 230.495,81.2766 227.162,82.2766 223.5,82.5C 226.505,80.7234 229.838,79.7234 233.5,79.5 Z"/></g>
<g><path style="opacity:0.322" fill="#f1beb6" d="M 97.5,82.5 C 97.5,83.1667 97.5,83.8333 97.5,84.5C 96.8333,84.8333 96.1667,85.1667 95.5,85.5C 95.427,83.9731 96.0937,82.9731 97.5,82.5 Z"/></g>
<g><path style="opacity:0.525" fill="#f0bdb5" d="M 219.5,83.5 C 216.784,84.6341 214.118,85.9675 211.5,87.5C 211.414,86.5041 211.748,85.6708 212.5,85C 214.74,84.023 217.073,83.523 219.5,83.5 Z"/></g>
<g><path style="opacity:0.561" fill="#e8aba2" d="M 351.5,78.5 C 349.234,82.4356 346.234,85.7689 342.5,88.5C 344.766,84.5644 347.766,81.2311 351.5,78.5 Z"/></g>
<g><path style="opacity:0.004" fill="#fefffe" d="M 389.5,85.5 C 390.833,86.1667 390.833,86.1667 389.5,85.5 Z"/></g>
<g><path style="opacity:1" fill="#cd6761" d="M 136.5,55.5 C 137.164,58.1459 137.498,60.9792 137.5,64C 136.929,84.0421 135.596,103.875 133.5,123.5C 133.167,123.5 132.833,123.5 132.5,123.5C 133.452,117.925 133.786,112.259 133.5,106.5C 133.787,93.8114 134.454,81.1447 135.5,68.5C 136.485,64.3656 136.818,60.0323 136.5,55.5 Z"/></g>
<g><path style="opacity:1" fill="#cd5852" d="M 241.5,78.5 C 238.607,80.2652 235.274,81.4319 231.5,82C 230.167,82.6667 230.167,83.3333 231.5,84C 225.514,85.1274 219.681,86.6274 214,88.5C 212.868,94.3034 211.702,100.137 210.5,106C 211.067,109.401 211.901,112.568 213,115.5C 212.549,117.929 211.715,118.096 210.5,116C 211.816,114.022 211.316,112.522 209,111.5C 208.996,114.792 207.83,117.458 205.5,119.5C 206.419,112.631 207.752,105.964 209.5,99.5C 211.136,95.7905 211.802,91.7905 211.5,87.5C 214.118,85.9675 216.784,84.6341 219.5,83.5C 220.568,82.5655 221.901,82.2322 223.5,82.5C 227.162,82.2766 230.495,81.2766 233.5,79.5C 236.167,79.1667 238.833,78.8333 241.5,78.5 Z"/></g>
<g><path style="opacity:1" fill="#db8179" d="M 120.5,74.5 C 120.672,75.4916 120.338,76.1583 119.5,76.5C 117.896,77.287 117.229,78.6203 117.5,80.5C 115.086,86.3258 112.419,91.9924 109.5,97.5C 109.768,95.901 109.434,94.5676 108.5,93.5C 108.389,92.8826 108.056,92.3826 107.5,92C 108.793,91.51 110.127,91.3433 111.5,91.5C 113.167,86.1667 114.833,80.8333 116.5,75.5C 117.959,75.5674 119.292,75.2341 120.5,74.5 Z"/></g>
<g><path style="opacity:0.004" fill="#fefffe" d="M 392.5,91.5 C 393.833,92.1667 393.833,92.1667 392.5,91.5 Z"/></g>
<g><path style="opacity:0.004" fill="#fefffe" d="M 428.5,91.5 C 429.833,92.1667 429.833,92.1667 428.5,91.5 Z"/></g>
<g><path style="opacity:0.004" fill="#fefffe" d="M 17.5,92.5 C 18.8333,93.1667 18.8333,93.1667 17.5,92.5 Z"/></g>
<g><path style="opacity:1" fill="#cc5953" d="M 355.5,91.5 C 355.5,92.1667 355.5,92.8333 355.5,93.5C 353.5,96.1667 351.167,98.5 348.5,100.5C 347.957,100.56 347.624,100.893 347.5,101.5C 348.667,101.833 349.833,102.167 351,102.5C 354.804,101.795 358.637,101.462 362.5,101.5C 363.791,101.263 364.791,101.596 365.5,102.5C 365.5,102.833 365.5,103.167 365.5,103.5C 363.453,103.489 361.453,103.156 359.5,102.5C 354.563,103.88 349.563,104.38 344.5,104C 345.24,102.215 345.907,100.382 346.5,98.5C 347.689,97.5713 349.022,97.238 350.5,97.5C 349.425,93.062 351.092,91.062 355.5,91.5 Z"/></g>
<g><path style="opacity:1" fill="#ce6f6b" d="M 97.5,84.5 C 95.8802,87.4716 94.2135,90.4716 92.5,93.5C 92.0431,94.2975 91.3764,94.6309 90.5,94.5C 91.4097,91.0078 93.0764,88.0078 95.5,85.5C 96.1667,85.1667 96.8333,84.8333 97.5,84.5 Z"/></g>
<g><path style="opacity:0.929" fill="#e09997" d="M 250.5,86.5 C 252.102,90.9215 253.102,95.5881 253.5,100.5C 252.883,100.389 252.383,100.056 252,99.5C 250.925,95.23 250.425,90.8967 250.5,86.5 Z"/></g>
<g><path style="opacity:0.004" fill="#fefffe" d="M 332.5,93.5 C 333.833,94.1667 333.833,94.1667 332.5,93.5 Z"/></g>
<g><path style="opacity:0.745" fill="#e5aba3" d="M 211.5,87.5 C 211.802,91.7905 211.136,95.7905 209.5,99.5C 209.539,95.2671 210.205,91.2671 211.5,87.5 Z"/></g>
<g><path style="opacity:1" fill="#d0413c" d="M 250.5,86.5 C 250.425,90.8967 250.925,95.23 252,99.5C 252.383,100.056 252.883,100.389 253.5,100.5C 254.219,102.764 254.552,105.097 254.5,107.5C 254.41,110.152 255.076,112.485 256.5,114.5C 257.687,117.946 258.354,121.613 258.5,125.5C 258.719,129.8 259.719,133.8 261.5,137.5C 262.917,140.998 263.583,144.665 263.5,148.5C 263.41,151.152 264.076,153.485 265.5,155.5C 265.5,155.833 265.5,156.167 265.5,156.5C 265.67,161.859 266.17,167.192 267,172.5C 267.601,174.359 268.434,174.692 269.5,173.5C 271.749,172.92 273.415,171.587 274.5,169.5C 276.5,166.833 278.833,164.5 281.5,162.5C 282.496,162.586 283.329,162.252 284,161.5C 284.998,152.191 285.498,142.858 285.5,133.5C 285.181,128.637 285.514,123.97 286.5,119.5C 286.9,135.438 286.233,151.272 284.5,167C 285.27,169.567 286.27,172.067 287.5,174.5C 284.693,177.278 283.86,180.611 285,184.5C 286.881,181.649 287.715,181.982 287.5,185.5C 285.949,187.685 284.615,190.185 283.5,193C 283.645,193.772 283.978,194.439 284.5,195C 286.433,195.251 288.266,195.751 290,196.5C 290.333,196.167 290.667,195.833 291,195.5C 293.405,196.274 295.905,196.774 298.5,197C 293.482,198.594 288.149,198.76 282.5,197.5C 282.5,191.167 282.5,184.833 282.5,178.5C 281.105,174.805 279.772,175.139 278.5,179.5C 276.5,180.167 274.5,180.833 272.5,181.5C 272.5,182.833 272.5,184.167 272.5,185.5C 270.883,184.962 269.216,184.629 267.5,184.5C 267.5,185.5 267.5,186.5 267.5,187.5C 266.127,187.343 264.793,187.51 263.5,188C 264.38,189.356 264.714,190.856 264.5,192.5C 262.473,192.338 260.473,192.505 258.5,193C 257.62,194.356 257.286,195.856 257.5,197.5C 256.022,197.238 254.689,197.571 253.5,198.5C 253.709,199.086 254.043,199.586 254.5,200C 252.893,201.049 252.227,202.549 252.5,204.5C 244.425,207.877 236.425,211.211 228.5,214.5C 226.833,215.167 225.167,215.833 223.5,216.5C 218.821,216.666 214.155,216.499 209.5,216C 207.942,215.79 206.609,215.29 205.5,214.5C 202.421,212.61 199.421,210.443 196.5,208C 197.167,207.333 197.833,206.667 198.5,206C 197.027,205.29 196.36,204.124 196.5,202.5C 193.833,202.5 191.167,202.5 188.5,202.5C 184.251,190.329 184.585,178.329 189.5,166.5C 192.776,165.878 194.109,163.878 193.5,160.5C 193.5,160.167 193.5,159.833 193.5,159.5C 195.99,156.374 197.323,152.708 197.5,148.5C 197.5,148.167 197.5,147.833 197.5,147.5C 199.213,146.365 199.88,144.698 199.5,142.5C 200.924,140.485 201.59,138.152 201.5,135.5C 202.232,129.906 203.565,124.573 205.5,119.5C 207.83,117.458 208.996,114.792 209,111.5C 211.316,112.522 211.816,114.022 210.5,116C 211.715,118.096 212.549,117.929 213,115.5C 211.901,112.568 211.067,109.401 210.5,106C 211.702,100.137 212.868,94.3034 214,88.5C 219.681,86.6274 225.514,85.1274 231.5,84C 230.167,83.3333 230.167,82.6667 231.5,82C 235.274,81.4319 238.607,80.2652 241.5,78.5C 242.5,77.8333 243.5,77.1667 244.5,76.5C 245.884,75.1991 247.384,75.1991 249,76.5C 250.043,79.7568 250.543,83.0901 250.5,86.5 Z M 219.5,122.5 C 219.42,125.781 220.087,128.781 221.5,131.5C 221.171,134.228 221.837,136.562 223.5,138.5C 223.5,138.833 223.5,139.167 223.5,139.5C 223.564,145.277 224.897,150.61 227.5,155.5C 227.53,159.618 228.197,163.618 229.5,167.5C 230.688,173.181 230.688,178.848 229.5,184.5C 228.89,185.391 228.557,186.391 228.5,187.5C 227.094,187.973 226.427,188.973 226.5,190.5C 224.973,190.427 223.973,191.094 223.5,192.5C 220.386,194.391 217.052,195.724 213.5,196.5C 208.36,197.197 203.693,196.197 199.5,193.5C 198.492,191.456 197.492,189.456 196.5,187.5C 198.857,185.902 201.523,184.902 204.5,184.5C 206.404,184.262 207.738,183.262 208.5,181.5C 210.971,179.116 212.304,176.116 212.5,172.5C 212.533,169.898 211.533,167.898 209.5,166.5C 209.167,165.5 208.5,164.833 207.5,164.5C 206.859,163.518 206.193,162.518 205.5,161.5C 206.246,160.264 206.579,158.93 206.5,157.5C 207.738,155.786 208.405,153.786 208.5,151.5C 210.101,148.45 211.101,145.116 211.5,141.5C 213.435,136.427 214.768,131.094 215.5,125.5C 216.264,123.26 217.098,120.927 218,118.5C 218.21,120.058 218.71,121.391 219.5,122.5 Z"/></g>
<g><path style="opacity:0.004" fill="#fefffe" d="M 392.5,96.5 C 393.833,97.1667 393.833,97.1667 392.5,96.5 Z"/></g>
<g><path style="opacity:1" fill="#cb6a64" d="M 287.5,88.5 C 287.833,88.5 288.167,88.5 288.5,88.5C 289.132,96.5729 288.465,104.24 286.5,111.5C 286.5,108.833 286.5,106.167 286.5,103.5C 286.179,98.3054 286.513,93.3054 287.5,88.5 Z"/></g>
<g><path style="opacity:0.004" fill="#fefffe" d="M 83.5,98.5 C 84.8333,99.1667 84.8333,99.1667 83.5,98.5 Z"/></g>
<g><path style="opacity:0.412" fill="#eab5af" d="M 171.5,84.5 C 171.355,93.6881 170.689,102.688 169.5,111.5C 169.5,109.5 169.5,107.5 169.5,105.5C 169.5,100.167 169.5,94.8333 169.5,89.5C 170.167,87.8333 170.833,86.1667 171.5,84.5 Z"/></g>
<g><path style="opacity:0.631" fill="#e7b2ad" d="M 335.5,95.5 C 333.906,98.7642 331.573,101.431 328.5,103.5C 330.094,100.236 332.427,97.5691 335.5,95.5 Z"/></g>
<g><path style="opacity:0.533" fill="#efb6a5" d="M 109.5,97.5 C 109.065,100.157 108.065,102.491 106.5,104.5C 106.552,101.654 107.552,99.3204 109.5,97.5 Z"/></g>
<g><path style="opacity:0.004" fill="#fefffe" d="M 188.5,100.5 C 189.833,101.167 189.833,101.167 188.5,100.5 Z"/></g>
<g><path style="opacity:1" fill="#c95752" d="M 339.5,91.5 C 339.649,92.552 339.483,93.552 339,94.5C 336.331,97.9997 333.498,101.333 330.5,104.5C 328.67,106.369 326.67,108.202 324.5,110C 323.251,110.74 322.251,110.573 321.5,109.5C 323.027,109.573 324.027,108.906 324.5,107.5C 325.5,105.833 326.833,104.5 328.5,103.5C 331.573,101.431 333.906,98.7642 335.5,95.5C 336.5,93.8333 337.833,92.5 339.5,91.5 Z"/></g>
<g><path style="opacity:0.004" fill="#fefffe" d="M 14.5,101.5 C 15.8333,102.167 15.8333,102.167 14.5,101.5 Z"/></g>
<g><path style="opacity:0.698" fill="#f3bab6" d="M 348.5,100.5 C 353.154,100.544 357.821,100.878 362.5,101.5C 358.637,101.462 354.804,101.795 351,102.5C 349.833,102.167 348.667,101.833 347.5,101.5C 347.624,100.893 347.957,100.56 348.5,100.5 Z"/></g>
<g><path style="opacity:1" fill="#d47e76" d="M 90.5,94.5 C 90.0819,98.3494 88.4152,101.349 85.5,103.5C 86.4097,100.008 88.0764,97.0078 90.5,94.5 Z"/></g>
<g><path style="opacity:1" fill="#dc9188" d="M 365.5,103.5 C 365.5,103.167 365.5,102.833 365.5,102.5C 369.244,102.928 372.244,104.595 374.5,107.5C 371.336,106.556 368.336,105.222 365.5,103.5 Z"/></g>
<g><path style="opacity:0.004" fill="#fefffe" d="M 398.5,106.5 C 399.833,107.167 399.833,107.167 398.5,106.5 Z"/></g>
<g><path style="opacity:1" fill="#cf403a" d="M 370.5,79.5 C 368.857,79.4802 367.524,80.1468 366.5,81.5C 364.902,80.5153 363.235,80.3486 361.5,81C 362.973,81.7096 363.64,82.8762 363.5,84.5C 362.5,84.5 361.5,84.5 360.5,84.5C 360.898,88.7589 358.898,90.5922 354.5,90C 355.056,90.3826 355.389,90.8826 355.5,91.5C 351.092,91.062 349.425,93.062 350.5,97.5C 349.022,97.238 347.689,97.5713 346.5,98.5C 345.907,100.382 345.24,102.215 344.5,104C 349.563,104.38 354.563,103.88 359.5,102.5C 361.453,103.156 363.453,103.489 365.5,103.5C 368.336,105.222 371.336,106.556 374.5,107.5C 375.5,107.833 376.167,108.5 376.5,109.5C 376.427,111.027 377.094,112.027 378.5,112.5C 378.427,114.027 379.094,115.027 380.5,115.5C 380.69,118.855 381.69,121.855 383.5,124.5C 382.99,135.676 382.99,146.676 383.5,157.5C 383.5,157.833 383.5,158.167 383.5,158.5C 383.12,160.698 383.787,162.365 385.5,163.5C 385.5,164.5 385.5,165.5 385.5,166.5C 389.846,166.666 394.179,166.499 398.5,166C 399.381,165.292 400.047,164.458 400.5,163.5C 402.411,162.925 404.078,161.925 405.5,160.5C 406.721,159.972 407.887,159.305 409,158.5C 409.735,153.331 411.069,148.331 413,143.5C 414.444,141.845 416.278,141.178 418.5,141.5C 418.693,145.566 418.36,149.566 417.5,153.5C 417.5,155.5 417.5,157.5 417.5,159.5C 417.598,161.553 416.931,163.22 415.5,164.5C 412.728,166.832 411.061,169.832 410.5,173.5C 409.167,173.5 407.833,173.5 406.5,173.5C 406.5,175.5 406.5,177.5 406.5,179.5C 404.167,181.167 402.167,183.167 400.5,185.5C 398.371,187.95 395.704,189.617 392.5,190.5C 391.5,190.5 390.5,190.5 389.5,190.5C 380.833,190.5 372.167,190.5 363.5,190.5C 363.5,189.5 363.5,188.5 363.5,187.5C 361.5,187.5 359.5,187.5 357.5,187.5C 354.603,183.67 352.27,179.67 350.5,175.5C 348.96,173.162 348.294,170.495 348.5,167.5C 349.212,155.171 349.379,142.837 349,130.5C 347.519,129.529 346.685,128.196 346.5,126.5C 346.196,125.85 345.863,125.183 345.5,124.5C 347.167,123.833 348.833,123.167 350.5,122.5C 346.855,121.713 343.188,121.546 339.5,122C 338.743,120.488 337.743,119.154 336.5,118C 341.823,117.501 347.156,117.334 352.5,117.5C 352.67,116.178 352.337,115.011 351.5,114C 345.833,113.667 340.167,113.333 334.5,113C 335.964,111.136 336.964,108.969 337.5,106.5C 339.316,105.185 340.983,103.685 342.5,102C 342.167,101.667 341.833,101.333 341.5,101C 339.001,102.276 336.334,103.442 333.5,104.5C 333.682,106.591 333.348,108.591 332.5,110.5C 331.675,111.386 330.675,111.719 329.5,111.5C 329.383,109.516 330.05,107.85 331.5,106.5C 331.137,105.817 330.804,105.15 330.5,104.5C 333.498,101.333 336.331,97.9997 339,94.5C 339.483,93.552 339.649,92.552 339.5,91.5C 340.167,90.1667 341.167,89.1667 342.5,88.5C 346.234,85.7689 349.234,82.4356 351.5,78.5C 352.833,76.5 354.5,74.8333 356.5,73.5C 357.833,72.5 359.167,71.5 360.5,70.5C 362.544,69.9688 364.211,68.8022 365.5,67C 369.178,66.5819 372.845,66.0819 376.5,65.5C 377.5,65.8333 378.5,66.1667 379.5,66.5C 377.135,67.0851 375.135,68.2518 373.5,70C 374.308,70.3076 374.975,70.8076 375.5,71.5C 373.328,72.2048 371.328,73.2048 369.5,74.5C 370.025,75.1924 370.692,75.6924 371.5,76C 370.663,77.0113 370.33,78.1779 370.5,79.5 Z"/></g>
<g><path style="opacity:0.482" fill="#e79a92" d="M 322.5,99.5 C 322.5,101.833 322.5,104.167 322.5,106.5C 322.842,107.338 323.508,107.672 324.5,107.5C 324.027,108.906 323.027,109.573 321.5,109.5C 321.187,105.958 321.521,102.625 322.5,99.5 Z"/></g>
<g><path style="opacity:0.651" fill="#edb29f" d="M 376.5,109.5 C 377.906,109.973 378.573,110.973 378.5,112.5C 377.094,112.027 376.427,111.027 376.5,109.5 Z"/></g>
<g><path style="opacity:0.004" fill="#fefffe" d="M 398.5,111.5 C 399.833,112.167 399.833,112.167 398.5,111.5 Z"/></g>
<g><path style="opacity:0.173" fill="#f7c7c1" d="M 254.5,107.5 C 256.163,109.438 256.829,111.772 256.5,114.5C 255.076,112.485 254.41,110.152 254.5,107.5 Z"/></g>
<g><path style="opacity:0.004" fill="#fefffe" d="M 266.5,114.5 C 267.833,115.167 267.833,115.167 266.5,114.5 Z"/></g>
<g><path style="opacity:0.396" fill="#ebb7a9" d="M 378.5,112.5 C 379.906,112.973 380.573,113.973 380.5,115.5C 379.094,115.027 378.427,114.027 378.5,112.5 Z"/></g>
<g><path style="opacity:0.51" fill="#edbcb3" d="M 133.5,106.5 C 133.786,112.259 133.452,117.925 132.5,123.5C 129.219,123.58 126.219,122.913 123.5,121.5C 126.29,121.949 128.956,121.949 131.5,121.5C 132.121,116.368 132.787,111.368 133.5,106.5 Z"/></g>
<g><path style="opacity:0.145" fill="#f9ccc6" d="M 79.5,116.5 C 79.5858,117.496 79.2524,118.329 78.5,119C 76.1902,119.497 73.8568,119.663 71.5,119.5C 74.2724,118.918 76.9391,117.918 79.5,116.5 Z"/></g>
<g><path style="opacity:0.031" fill="#fde3d5" d="M 102.5,115.5 C 102.5,116.5 102.5,117.5 102.5,118.5C 104.415,118.216 106.081,118.549 107.5,119.5C 105.5,119.5 103.5,119.5 101.5,119.5C 101.232,117.901 101.566,116.568 102.5,115.5 Z"/></g>
<g><path style="opacity:0.482" fill="#f0b6ae" d="M 219.5,119.5 C 219.5,120.5 219.5,121.5 219.5,122.5C 218.71,121.391 218.21,120.058 218,118.5C 217.098,120.927 216.264,123.26 215.5,125.5C 215.26,122.421 215.593,119.421 216.5,116.5C 218.467,115.903 219.467,116.903 219.5,119.5 Z"/></g>
<g><path style="opacity:0.949" fill="#e1988e" d="M 380.5,115.5 C 382.472,118.084 383.472,121.084 383.5,124.5C 381.69,121.855 380.69,118.855 380.5,115.5 Z"/></g>
<g><path style="opacity:0.004" fill="#fefffe" d="M 38.5,121.5 C 39.8333,122.167 39.8333,122.167 38.5,121.5 Z"/></g>
<g><path style="opacity:0.769" fill="#e7a59f" d="M 57.5,121.5 C 55.8984,123.074 53.8984,123.741 51.5,123.5C 53.1016,121.926 55.1016,121.259 57.5,121.5 Z"/></g>
<g><path style="opacity:1" fill="#d1645c" d="M 346.5,126.5 C 346.685,128.196 347.519,129.529 349,130.5C 349.379,142.837 349.212,155.171 348.5,167.5C 347.511,162.025 347.178,156.358 347.5,150.5C 347.5,150.167 347.5,149.833 347.5,149.5C 348.65,144.684 348.816,139.684 348,134.5C 347.626,132.509 346.793,130.842 345.5,129.5C 343.911,127.694 341.911,126.361 339.5,125.5C 334.337,126.417 329.67,128.417 325.5,131.5C 325.822,129.278 325.155,127.444 323.5,126C 324.931,125.535 326.097,124.701 327,123.5C 327.308,124.308 327.808,124.975 328.5,125.5C 333.071,124.015 337.738,123.515 342.5,124C 343.736,125.085 345.069,125.918 346.5,126.5 Z"/></g>
<g><path style="opacity:0.969" fill="#dd958f" d="M 51.5,123.5 C 49.8984,125.074 47.8984,125.741 45.5,125.5C 47.1016,123.926 49.1016,123.259 51.5,123.5 Z"/></g>
<g><path style="opacity:0.584" fill="#eca6a2" d="M 45.5,125.5 C 43.9674,127.245 41.9674,128.245 39.5,128.5C 41.0326,126.755 43.0326,125.755 45.5,125.5 Z"/></g>
<g><path style="opacity:0.322" fill="#fad0ca" d="M 286.5,103.5 C 286.5,106.167 286.5,108.833 286.5,111.5C 286.5,114.167 286.5,116.833 286.5,119.5C 285.514,123.97 285.181,128.637 285.5,133.5C 285.167,133.5 284.833,133.5 284.5,133.5C 284.513,123.306 285.18,113.306 286.5,103.5 Z"/></g>
<g><path style="opacity:0.353" fill="#f9c6c5" d="M 258.5,125.5 C 260.281,129.2 261.281,133.2 261.5,137.5C 259.719,133.8 258.719,129.8 258.5,125.5 Z"/></g>
<g><path style="opacity:0.686" fill="#eaa9a8" d="M 37.5,129.5 C 37.0269,130.906 36.0269,131.573 34.5,131.5C 34.9731,130.094 35.9731,129.427 37.5,129.5 Z"/></g>
<g><path style="opacity:1" fill="#cf4b46" d="M 85.5,103.5 C 85.4889,105.547 85.1556,107.547 84.5,109.5C 82.7229,112.72 81.2229,116.053 80,119.5C 79.0094,120.939 77.676,121.939 76,122.5C 75.5172,123.448 75.3505,124.448 75.5,125.5C 72.1662,125.786 68.9995,125.786 66,125.5C 65.5,125.833 65,126.167 64.5,126.5C 65.5896,127.609 65.5896,128.609 64.5,129.5C 61.6115,131.563 58.6115,133.397 55.5,135C 56,135.5 56.5,136 57,136.5C 61.8722,134.696 66.7056,134.362 71.5,135.5C 69.2646,135.205 67.2646,135.539 65.5,136.5C 62.8478,136.41 60.5145,137.076 58.5,138.5C 56.8185,140.008 54.8185,141.008 52.5,141.5C 52.1667,141.5 51.8333,141.5 51.5,141.5C 51.5,140.5 51.5,139.5 51.5,138.5C 49.0509,139.057 46.7175,139.057 44.5,138.5C 46.297,137.305 47.297,135.638 47.5,133.5C 51.1296,131.901 54.7963,130.234 58.5,128.5C 61.995,130.865 62.3283,130.198 59.5,126.5C 60.8333,125.833 62.1667,125.167 63.5,124.5C 56.7074,123.638 50.374,125.138 44.5,129C 43.1667,129.667 43.1667,130.333 44.5,131C 40.2482,131.56 36.2482,132.727 32.5,134.5C 33.1667,133.5 33.8333,132.5 34.5,131.5C 36.0269,131.573 37.0269,130.906 37.5,129.5C 37.8417,128.662 38.5084,128.328 39.5,128.5C 41.9674,128.245 43.9674,127.245 45.5,125.5C 47.8984,125.741 49.8984,125.074 51.5,123.5C 53.8984,123.741 55.8984,123.074 57.5,121.5C 61.8996,119.896 66.5662,119.229 71.5,119.5C 73.8568,119.663 76.1902,119.497 78.5,119C 79.2524,118.329 79.5858,117.496 79.5,116.5C 80.7105,111.749 82.7105,107.416 85.5,103.5 Z"/></g>
<g><path style="opacity:0.886" fill="#e4a8a4" d="M 383.5,124.5 C 384.579,127.617 385.246,130.95 385.5,134.5C 384.667,142.157 384.001,149.824 383.5,157.5C 382.99,146.676 382.99,135.676 383.5,124.5 Z"/></g>
<g><path style="opacity:0.278" fill="#f8d4cd" d="M 169.5,113.5 C 169.406,123.689 168.739,133.689 167.5,143.5C 167.354,133.296 168.021,123.296 169.5,113.5 Z"/></g>
<g><path style="opacity:0.125" fill="#f9c5bf" d="M 221.5,131.5 C 222.612,133.599 223.279,135.933 223.5,138.5C 221.837,136.562 221.171,134.228 221.5,131.5 Z"/></g>
<g><path style="opacity:0.02" fill="#f8dfc6" d="M 65.5,136.5 C 67.2646,135.539 69.2646,135.205 71.5,135.5C 71.5,136.167 71.5,136.833 71.5,137.5C 71.1667,137.5 70.8333,137.5 70.5,137.5C 69.0813,136.549 67.4147,136.216 65.5,136.5 Z"/></g>
<g><path style="opacity:0.004" fill="#fefffe" d="M 197.5,135.5 C 198.833,136.167 198.833,136.167 197.5,135.5 Z"/></g>
<g><path style="opacity:0.004" fill="#fefffe" d="M 341.5,136.5 C 342.833,137.167 342.833,137.167 341.5,136.5 Z"/></g>
<g><path style="opacity:0.576" fill="#e4adaa" d="M 29.5,135.5 C 28.5,137.167 27.1667,138.5 25.5,139.5C 25.8333,137.167 27.1667,135.833 29.5,135.5 Z"/></g>
<g><path style="opacity:0.047" fill="#f6ccc9" d="M 65.5,136.5 C 63.4855,137.924 61.1522,138.59 58.5,138.5C 60.5145,137.076 62.8478,136.41 65.5,136.5 Z"/></g>
<g><path style="opacity:0.671" fill="#eab0ac" d="M 201.5,135.5 C 201.59,138.152 200.924,140.485 199.5,142.5C 199.41,139.848 200.076,137.515 201.5,135.5 Z"/></g>
<g><path style="opacity:0.169" fill="#fccdc7" d="M 421.5,145.5 C 421.5,143.5 421.5,141.5 421.5,139.5C 418.518,139.963 415.518,140.296 412.5,140.5C 415.544,138.989 418.878,138.322 422.5,138.5C 422.802,141.059 422.468,143.393 421.5,145.5 Z"/></g>
<g><path style="opacity:1" fill="#ca6861" d="M 34.5,131.5 C 33.8333,132.5 33.1667,133.5 32.5,134.5C 29.8151,138.183 26.4818,141.183 22.5,143.5C 22.7376,141.596 23.7376,140.262 25.5,139.5C 27.1667,138.5 28.5,137.167 29.5,135.5C 30.5846,133.413 32.2512,132.08 34.5,131.5 Z"/></g>
<g><path style="opacity:0.004" fill="#fefffe" d="M 173.5,139.5 C 174.833,140.167 174.833,140.167 173.5,139.5 Z"/></g>
<g><path style="opacity:1" fill="#d03f3a" d="M 51.5,141.5 C 49.396,141.201 47.396,141.534 45.5,142.5C 46.8793,143.863 46.7126,144.863 45,145.5C 43.6996,144.548 42.533,144.548 41.5,145.5C 42.7028,148.999 44.2028,152.332 46,155.5C 46.4983,158.817 46.665,162.15 46.5,165.5C 45.1667,165.5 43.8333,165.5 42.5,165.5C 42.5,166.5 42.5,167.5 42.5,168.5C 37.1779,168.98 31.8446,169.313 26.5,169.5C 25.609,168.89 24.609,168.557 23.5,168.5C 21.7376,167.738 20.7376,166.404 20.5,164.5C 20.1016,161.517 19.7683,158.517 19.5,155.5C 19.8759,151.76 20.5426,148.094 21.5,144.5C 21.5,143.833 21.8333,143.5 22.5,143.5C 26.4818,141.183 29.8151,138.183 32.5,134.5C 36.2482,132.727 40.2482,131.56 44.5,131C 43.1667,130.333 43.1667,129.667 44.5,129C 50.374,125.138 56.7074,123.638 63.5,124.5C 62.1667,125.167 60.8333,125.833 59.5,126.5C 62.3283,130.198 61.995,130.865 58.5,128.5C 54.7963,130.234 51.1296,131.901 47.5,133.5C 47.297,135.638 46.297,137.305 44.5,138.5C 46.7175,139.057 49.0509,139.057 51.5,138.5C 51.5,139.5 51.5,140.5 51.5,141.5 Z"/></g>
<g><path style="opacity:1" fill="#c44a45" d="M 169.5,105.5 C 169.5,107.5 169.5,109.5 169.5,111.5C 169.5,112.167 169.5,112.833 169.5,113.5C 168.021,123.296 167.354,133.296 167.5,143.5C 166.5,152.833 165.5,162.167 164.5,171.5C 164.797,161.293 164.464,151.127 163.5,141C 163.959,138.645 164.792,136.479 166,134.5C 166.534,125.49 167.201,116.49 168,107.5C 168.278,106.584 168.778,105.918 169.5,105.5 Z"/></g>
<g><path style="opacity:0.192" fill="#f4beb5" d="M 412.5,140.5 C 412.34,142.153 411.674,143.486 410.5,144.5C 410.229,142.62 410.896,141.287 412.5,140.5 Z"/></g>
<g><path style="opacity:0.325" fill="#f3a9a2" d="M 345.5,129.5 C 346.793,130.842 347.626,132.509 348,134.5C 348.816,139.684 348.65,144.684 347.5,149.5C 347.845,143.029 347.179,136.362 345.5,129.5 Z"/></g>
<g><path style="opacity:1" fill="#d05f58" d="M 51.5,141.5 C 51.8333,141.5 52.1667,141.5 52.5,141.5C 49.3229,144.011 46.9896,147.177 45.5,151C 46.8228,151.816 47.4894,152.983 47.5,154.5C 48.0508,157.807 48.3841,161.14 48.5,164.5C 47.6987,167.572 45.6987,169.238 42.5,169.5C 37.213,170.342 31.8797,170.676 26.5,170.5C 26.5,170.167 26.5,169.833 26.5,169.5C 31.8446,169.313 37.1779,168.98 42.5,168.5C 42.5,167.5 42.5,166.5 42.5,165.5C 43.8333,165.5 45.1667,165.5 46.5,165.5C 46.665,162.15 46.4983,158.817 46,155.5C 44.2028,152.332 42.7028,148.999 41.5,145.5C 42.533,144.548 43.6996,144.548 45,145.5C 46.7126,144.863 46.8793,143.863 45.5,142.5C 47.396,141.534 49.396,141.201 51.5,141.5 Z"/></g>
<g><path style="opacity:0.62" fill="#ebb9af" d="M 211.5,141.5 C 211.101,145.116 210.101,148.45 208.5,151.5C 208.59,147.786 209.59,144.452 211.5,141.5 Z"/></g>
<g><path style="opacity:0.988" fill="#d7817a" d="M 284.5,133.5 C 284.833,133.5 285.167,133.5 285.5,133.5C 285.498,142.858 284.998,152.191 284,161.5C 283.329,162.252 282.496,162.586 281.5,162.5C 282.931,152.876 283.931,143.21 284.5,133.5 Z"/></g>
<g><path style="opacity:1" fill="#ca5750" d="M 421.5,145.5 C 421.768,147.099 421.434,148.432 420.5,149.5C 419.857,151.076 418.857,152.41 417.5,153.5C 418.36,149.566 418.693,145.566 418.5,141.5C 416.278,141.178 414.444,141.845 413,143.5C 411.069,148.331 409.735,153.331 409,158.5C 407.887,159.305 406.721,159.972 405.5,160.5C 405.5,159.833 405.5,159.167 405.5,158.5C 407.168,153.828 408.835,149.162 410.5,144.5C 411.674,143.486 412.34,142.153 412.5,140.5C 415.518,140.296 418.518,139.963 421.5,139.5C 421.5,141.5 421.5,143.5 421.5,145.5 Z"/></g>
<g><path style="opacity:0.808" fill="#e9aea8" d="M 68.5,142.5 C 68.6545,145.716 67.6545,148.383 65.5,150.5C 66.129,147.603 67.129,144.936 68.5,142.5 Z"/></g>
<g><path style="opacity:1" fill="#c9615c" d="M 70.5,137.5 C 70.8333,137.5 71.1667,137.5 71.5,137.5C 71.3862,139.718 70.7196,141.718 69.5,143.5C 69.3215,146.216 68.8215,148.883 68,151.5C 65.6798,154.759 63.8465,158.092 62.5,161.5C 62.8944,157.653 63.8944,153.986 65.5,150.5C 67.6545,148.383 68.6545,145.716 68.5,142.5C 68.7959,140.597 69.4625,138.93 70.5,137.5 Z"/></g>
<g><path style="opacity:0.306" fill="#f8cdc5" d="M 125.5,133.5 C 127.898,133.259 129.898,133.926 131.5,135.5C 131.821,141.026 131.488,146.36 130.5,151.5C 130.828,146.125 130.495,140.792 129.5,135.5C 127.974,135.006 126.641,134.339 125.5,133.5 Z"/></g>
<g><path style="opacity:0.808" fill="#e7afad" d="M 199.5,142.5 C 199.88,144.698 199.213,146.365 197.5,147.5C 197.796,145.597 198.463,143.93 199.5,142.5 Z"/></g>
<g><path style="opacity:0.549" fill="#f2bab6" d="M 94.5,143.5 C 93.4533,149.02 92.12,154.354 90.5,159.5C 90.6056,153.744 91.9389,148.411 94.5,143.5 Z"/></g>
<g><path style="opacity:0.004" fill="#fefffe" d="M 5.5,149.5 C 6.83333,150.167 6.83333,150.167 5.5,149.5 Z"/></g>
<g><path style="opacity:0.169" fill="#f8d0cb" d="M 223.5,139.5 C 225.039,144.689 226.372,150.022 227.5,155.5C 224.897,150.61 223.564,145.277 223.5,139.5 Z"/></g>
<g><path style="opacity:1" fill="#cf413c" d="M 108.5,93.5 C 109.434,94.5676 109.768,95.901 109.5,97.5C 107.552,99.3204 106.552,101.654 106.5,104.5C 105.935,108.537 104.601,112.203 102.5,115.5C 101.566,116.568 101.232,117.901 101.5,119.5C 103.5,119.5 105.5,119.5 107.5,119.5C 113.069,119.376 118.402,120.043 123.5,121.5C 126.219,122.913 129.219,123.58 132.5,123.5C 132.833,123.5 133.167,123.5 133.5,123.5C 133.363,128.194 135.697,130.361 140.5,130C 139.12,131.324 138.786,132.657 139.5,134C 138.207,134.49 136.873,134.657 135.5,134.5C 135.928,137.564 136.594,140.564 137.5,143.5C 136.167,143.5 134.833,143.5 133.5,143.5C 133.737,142.209 133.404,141.209 132.5,140.5C 132.784,138.585 132.451,136.919 131.5,135.5C 129.898,133.926 127.898,133.259 125.5,133.5C 123.265,133.795 121.265,133.461 119.5,132.5C 115.079,131.088 110.412,130.421 105.5,130.5C 102.645,130.503 99.9779,130.836 97.5,131.5C 96.3065,131.97 95.6399,132.97 95.5,134.5C 94.9049,137.14 94.5715,139.807 94.5,142.5C 94.5,142.833 94.5,143.167 94.5,143.5C 91.9389,148.411 90.6056,153.744 90.5,159.5C 88.7662,161.09 87.5995,163.09 87,165.5C 85.3081,174.11 83.9747,182.777 83,191.5C 82.3333,192.167 81.6667,192.833 81,193.5C 79.2709,214.176 79.2709,234.842 81,255.5C 81.2326,257.78 82.066,259.78 83.5,261.5C 76.0778,262.849 68.7444,262.516 61.5,260.5C 60.8333,260.5 60.1667,260.5 59.5,260.5C 58.7377,258.738 57.4044,257.738 55.5,257.5C 55.1667,256.833 54.8333,256.167 54.5,255.5C 54.1934,251.228 53.0268,247.228 51,243.5C 50.5002,233.506 50.3335,223.506 50.5,213.5C 51.0345,204.169 52.7011,195.169 55.5,186.5C 56.7682,184.095 57.4349,181.428 57.5,178.5C 59.7412,173.1 61.4078,167.433 62.5,161.5C 63.8465,158.092 65.6798,154.759 68,151.5C 68.8215,148.883 69.3215,146.216 69.5,143.5C 75.3945,140.028 75.7278,136.195 70.5,132C 71.3802,130.644 71.7135,129.144 71.5,127.5C 72.8333,127.5 74.1667,127.5 75.5,127.5C 76.199,130.573 77.199,133.573 78.5,136.5C 77.7868,138.776 77.2868,141.109 77,143.5C 75.9887,144.337 74.8221,144.67 73.5,144.5C 71.1861,150.512 70.8528,152.845 72.5,151.5C 73.5,151.5 74.5,151.5 75.5,151.5C 75.4422,154.664 74.7755,157.664 73.5,160.5C 74.5,160.5 75.5,160.5 76.5,160.5C 76.576,156.771 77.7426,153.438 80,150.5C 81.0642,152.959 82.3975,155.292 84,157.5C 85.0924,154.291 86.2591,151.124 87.5,148C 86.324,146.086 85.324,146.252 84.5,148.5C 80.4598,144.969 81.2931,142.969 87,142.5C 87.3333,140.167 87.6667,137.833 88,135.5C 88.7531,138.827 90.2531,138.827 92.5,135.5C 93.086,135.709 93.586,136.043 94,136.5C 95.5446,131.549 94.0446,129.882 89.5,131.5C 88.2372,128.118 87.2372,124.618 86.5,121C 85.5165,120.409 84.8499,120.743 84.5,122C 84.0889,123.144 83.7556,124.311 83.5,125.5C 84.4718,128.464 84.6385,131.464 84,134.5C 82.2759,131.431 80.7759,128.264 79.5,125C 79.8623,123.775 80.3623,122.609 81,121.5C 84.7735,119.775 86.2735,116.775 85.5,112.5C 88.0439,113.468 90.2105,115.135 92,117.5C 93.4677,121.446 94.6343,125.446 95.5,129.5C 101.304,129.403 102.637,127.069 99.5,122.5C 100.759,115.999 102.093,109.499 103.5,103C 101.352,100.633 100.019,97.8001 99.5,94.5C 100.515,93.3185 101.681,92.3185 103,91.5C 104.5,91.6667 105.333,92.5 105.5,94C 102.888,95.9828 103.055,97.8161 106,99.5C 107.122,97.5795 107.956,95.5795 108.5,93.5 Z"/></g>
<g><path style="opacity:0.004" fill="#fefffe" d="M 98.5,139.5 C 99.8333,140.167 99.8333,140.167 98.5,139.5 Z"/></g>
<g><path style="opacity:0.969" fill="#e29894" d="M 97.5,131.5 C 97.0743,135.427 96.0743,139.093 94.5,142.5C 94.5715,139.807 94.9049,137.14 95.5,134.5C 95.6399,132.97 96.3065,131.97 97.5,131.5 Z"/></g>
<g><path style="opacity:0.498" fill="#f5b1ab" d="M 97.5,131.5 C 99.9779,130.836 102.645,130.503 105.5,130.5C 110.412,130.421 115.079,131.088 119.5,132.5C 112.187,131.813 104.854,131.479 97.5,131.5 Z"/></g>
<g><path style="opacity:0.733" fill="#eeb3b0" d="M 197.5,148.5 C 197.323,152.708 195.99,156.374 193.5,159.5C 194.462,155.605 195.796,151.939 197.5,148.5 Z"/></g>
<g><path style="opacity:1" fill="#c35652" d="M 131.5,135.5 C 132.451,136.919 132.784,138.585 132.5,140.5C 132.666,146.842 132.5,153.175 132,159.5C 131.617,160.056 131.117,160.389 130.5,160.5C 130.5,157.833 130.5,155.167 130.5,152.5C 130.5,152.167 130.5,151.833 130.5,151.5C 131.488,146.36 131.821,141.026 131.5,135.5 Z"/></g>
<g><path style="opacity:0.004" fill="#fefffe" d="M 125.5,153.5 C 126.833,154.167 126.833,154.167 125.5,153.5 Z"/></g>
<g><path style="opacity:0.255" fill="#f5c3b9" d="M 263.5,148.5 C 265.163,150.438 265.829,152.772 265.5,155.5C 264.076,153.485 263.41,151.152 263.5,148.5 Z"/></g>
<g><path style="opacity:0.976" fill="#e4a39e" d="M 420.5,149.5 C 420.277,153.162 419.277,156.495 417.5,159.5C 417.5,157.5 417.5,155.5 417.5,153.5C 418.857,152.41 419.857,151.076 420.5,149.5 Z"/></g>
<g><path style="opacity:0.004" fill="#fefffe" d="M 11.5,156.5 C 12.8333,157.167 12.8333,157.167 11.5,156.5 Z"/></g>
<g><path style="opacity:1" fill="#cc615a" d="M 321.5,135.5 C 320.783,140.799 320.117,146.133 319.5,151.5C 318.583,161.507 317.583,171.507 316.5,181.5C 316.098,166.08 316.765,150.747 318.5,135.5C 319.5,135.5 320.5,135.5 321.5,135.5 Z"/></g>
<g><path style="opacity:0.424" fill="#e6aca3" d="M 21.5,144.5 C 20.5426,148.094 19.8759,151.76 19.5,155.5C 19.7683,158.517 20.1016,161.517 20.5,164.5C 16.8395,157.736 17.1728,151.07 21.5,144.5 Z"/></g>
<g><path style="opacity:0.302" fill="#fac5c0" d="M 319.5,151.5 C 319.196,168.027 318.196,184.361 316.5,200.5C 316.5,197.5 316.5,194.5 316.5,191.5C 316.5,188.167 316.5,184.833 316.5,181.5C 317.583,171.507 318.583,161.507 319.5,151.5 Z"/></g>
<g><path style="opacity:0.529" fill="#efada7" d="M 47.5,154.5 C 50.4894,157.719 50.8227,161.053 48.5,164.5C 48.3841,161.14 48.0508,157.807 47.5,154.5 Z"/></g>
<g><path style="opacity:0.451" fill="#f5c4bf" d="M 167.5,143.5 C 166.78,164.024 165.447,184.358 163.5,204.5C 163.5,203.5 163.5,202.5 163.5,201.5C 163.99,191.506 164.323,181.506 164.5,171.5C 165.5,162.167 166.5,152.833 167.5,143.5 Z"/></g>
<g><path style="opacity:0.439" fill="#e8948e" d="M 206.5,157.5 C 206.579,158.93 206.246,160.264 205.5,161.5C 206.193,162.518 206.859,163.518 207.5,164.5C 205.278,164.441 204.278,163.275 204.5,161C 204.387,159.301 205.053,158.134 206.5,157.5 Z"/></g>
<g><path style="opacity:0.733" fill="#eeabab" d="M 383.5,158.5 C 384.537,159.93 385.204,161.597 385.5,163.5C 383.787,162.365 383.12,160.698 383.5,158.5 Z"/></g>
<g><path style="opacity:0.647" fill="#efa8a4" d="M 405.5,158.5 C 405.5,159.167 405.5,159.833 405.5,160.5C 404.078,161.925 402.411,162.925 400.5,163.5C 401.833,161.5 403.5,159.833 405.5,158.5 Z"/></g>
<g><path style="opacity:0.871" fill="#de928d" d="M 193.5,160.5 C 194.109,163.878 192.776,165.878 189.5,166.5C 191.29,164.728 192.623,162.728 193.5,160.5 Z"/></g>
<g><path style="opacity:0.929" fill="#e29a91" d="M 265.5,156.5 C 266.833,162.167 268.167,167.833 269.5,173.5C 268.434,174.692 267.601,174.359 267,172.5C 266.17,167.192 265.67,161.859 265.5,156.5 Z"/></g>
<g><path style="opacity:0.137" fill="#fcd6cf" d="M 347.5,150.5 C 347.178,156.358 347.511,162.025 348.5,167.5C 348.294,170.495 348.96,173.162 350.5,175.5C 350.5,176.5 350.5,177.5 350.5,178.5C 348.672,175.865 347.505,172.865 347,169.5C 346.18,162.986 346.347,156.653 347.5,150.5 Z"/></g>
<g><path style="opacity:0.953" fill="#e19995" d="M 62.5,161.5 C 61.4078,167.433 59.7412,173.1 57.5,178.5C 58.1873,172.448 59.854,166.782 62.5,161.5 Z"/></g>
<g><path style="opacity:1" fill="#da837d" d="M 385.5,163.5 C 390.436,165.994 395.436,165.994 400.5,163.5C 400.047,164.458 399.381,165.292 398.5,166C 394.179,166.499 389.846,166.666 385.5,166.5C 385.5,165.5 385.5,164.5 385.5,163.5 Z"/></g>
<g><path style="opacity:0.29" fill="#f5cbc3" d="M 23.5,168.5 C 24.609,168.557 25.609,168.89 26.5,169.5C 26.5,169.833 26.5,170.167 26.5,170.5C 24.9731,170.573 23.9731,169.906 23.5,168.5 Z"/></g>
<g><path style="opacity:0.004" fill="#fefffe" d="M 122.5,169.5 C 123.833,170.167 123.833,170.167 122.5,169.5 Z"/></g>
<g><path style="opacity:0.91" fill="#e7a198" d="M 42.5,169.5 C 37.3534,173.046 32.0201,173.379 26.5,170.5C 31.8797,170.676 37.213,170.342 42.5,169.5 Z"/></g>
<g><path style="opacity:0.251" fill="#f5c3bc" d="M 186.5,170.5 C 186.573,172.027 185.906,173.027 184.5,173.5C 184.427,171.973 185.094,170.973 186.5,170.5 Z"/></g>
<g><path style="opacity:0.804" fill="#e59f9a" d="M 274.5,169.5 C 273.415,171.587 271.749,172.92 269.5,173.5C 270.585,171.413 272.251,170.08 274.5,169.5 Z"/></g>
<g><path style="opacity:1" fill="#d4766d" d="M 415.5,164.5 C 413.63,169.906 410.963,174.906 407.5,179.5C 407.167,179.5 406.833,179.5 406.5,179.5C 406.5,177.5 406.5,175.5 406.5,173.5C 407.833,173.5 409.167,173.5 410.5,173.5C 411.061,169.832 412.728,166.832 415.5,164.5 Z"/></g>
<g><path style="opacity:0.004" fill="#fefffe" d="M 44.5,175.5 C 45.8333,176.167 45.8333,176.167 44.5,175.5 Z"/></g>
<g><path style="opacity:1" fill="#da847a" d="M 209.5,166.5 C 211.533,167.898 212.533,169.898 212.5,172.5C 212.304,176.116 210.971,179.116 208.5,181.5C 208.15,177.374 208.816,174.207 210.5,172C 210.304,170.122 209.971,168.288 209.5,166.5 Z"/></g>
<g><path style="opacity:0.102" fill="#fbc3bc" d="M 282.5,178.5 C 282.167,178.5 281.833,178.5 281.5,178.5C 281.565,178.062 281.399,177.728 281,177.5C 280.292,178.381 279.458,179.047 278.5,179.5C 279.772,175.139 281.105,174.805 282.5,178.5 Z"/></g>
<g><path style="opacity:1" fill="#d77e77" d="M 350.5,175.5 C 352.27,179.67 354.603,183.67 357.5,187.5C 355.983,187.489 354.816,186.823 354,185.5C 352.295,183.423 351.128,181.09 350.5,178.5C 350.5,177.5 350.5,176.5 350.5,175.5 Z"/></g>
<g><path style="opacity:0.333" fill="#f4bdb6" d="M 87.5,173.5 C 87.5701,177.425 86.9034,181.091 85.5,184.5C 85.2511,180.542 85.9177,176.876 87.5,173.5 Z"/></g>
<g><path style="opacity:0.753" fill="#eaada5" d="M 57.5,178.5 C 57.4349,181.428 56.7682,184.095 55.5,186.5C 55.2938,183.505 55.9605,180.838 57.5,178.5 Z"/></g>
<g><path style="opacity:0.682" fill="#eab5ad" d="M 229.5,167.5 C 230.991,170.186 231.657,173.186 231.5,176.5C 231.713,179.527 231.047,182.193 229.5,184.5C 230.688,178.848 230.688,173.181 229.5,167.5 Z"/></g>
<g><path style="opacity:1" fill="#db877f" d="M 278.5,179.5 C 276.833,181.833 274.833,183.833 272.5,185.5C 272.5,184.167 272.5,182.833 272.5,181.5C 274.5,180.833 276.5,180.167 278.5,179.5 Z"/></g>
<g><path style="opacity:0.071" fill="#f1c3c0" d="M 406.5,179.5 C 406.833,179.5 407.167,179.5 407.5,179.5C 405.761,182.243 403.427,184.243 400.5,185.5C 402.167,183.167 404.167,181.167 406.5,179.5 Z"/></g>
<g><path style="opacity:0.996" fill="#d9918b" d="M 184.5,173.5 C 183.659,180.465 183.326,187.465 183.5,194.5C 180.633,187.36 180.967,180.36 184.5,173.5 Z"/></g>
<g><path style="opacity:0.992" fill="#c15e5b" d="M 208.5,181.5 C 207.738,183.262 206.404,184.262 204.5,184.5C 201.5,184.5 198.5,184.5 195.5,184.5C 199.839,183.744 204.173,182.744 208.5,181.5 Z"/></g>
<g><path style="opacity:1" fill="#d67065" d="M 272.5,185.5 C 270.249,188.295 267.582,190.628 264.5,192.5C 264.714,190.856 264.38,189.356 263.5,188C 264.793,187.51 266.127,187.343 267.5,187.5C 267.5,186.5 267.5,185.5 267.5,184.5C 269.216,184.629 270.883,184.962 272.5,185.5 Z"/></g>
<g><path style="opacity:1" fill="#da847c" d="M 130.5,152.5 C 130.5,155.167 130.5,157.833 130.5,160.5C 130.766,175.032 130.099,189.365 128.5,203.5C 128.5,196.833 128.5,190.167 128.5,183.5C 128.628,172.98 129.294,162.647 130.5,152.5 Z"/></g>
<g><path style="opacity:0.302" fill="#f3b8ae" d="M 195.5,184.5 C 198.5,184.5 201.5,184.5 204.5,184.5C 201.523,184.902 198.857,185.902 196.5,187.5C 195.596,186.791 195.263,185.791 195.5,184.5 Z"/></g>
<g><path style="opacity:1" fill="#c94d49" d="M 189.5,166.5 C 184.585,178.329 184.251,190.329 188.5,202.5C 191.167,202.5 193.833,202.5 196.5,202.5C 196.36,204.124 197.027,205.29 198.5,206C 197.833,206.667 197.167,207.333 196.5,208C 199.421,210.443 202.421,212.61 205.5,214.5C 204.167,214.5 202.833,214.5 201.5,214.5C 199.847,214.34 198.514,213.674 197.5,212.5C 196.738,210.738 195.404,209.738 193.5,209.5C 189.7,207.037 187.033,203.704 185.5,199.5C 185.598,197.447 184.931,195.78 183.5,194.5C 183.326,187.465 183.659,180.465 184.5,173.5C 185.906,173.027 186.573,172.027 186.5,170.5C 186.738,168.596 187.738,167.262 189.5,166.5 Z"/></g>
<g><path style="opacity:0.545" fill="#f7bbba" d="M 228.5,187.5 C 228.573,189.027 227.906,190.027 226.5,190.5C 226.427,188.973 227.094,187.973 228.5,187.5 Z"/></g>
<g><path style="opacity:1" fill="#c64c47" d="M 357.5,187.5 C 359.5,187.5 361.5,187.5 363.5,187.5C 363.5,188.5 363.5,189.5 363.5,190.5C 372.167,190.5 380.833,190.5 389.5,190.5C 388.5,191.167 387.5,191.833 386.5,192.5C 378.799,192.691 371.132,192.358 363.5,191.5C 360.802,191.155 358.802,189.822 357.5,187.5 Z"/></g>
<g><path style="opacity:0.541" fill="#e9aaa2" d="M 196.5,187.5 C 197.492,189.456 198.492,191.456 199.5,193.5C 197.025,192.313 196.025,190.313 196.5,187.5 Z"/></g>
<g><path style="opacity:0.537" fill="#f5b5a3" d="M 226.5,190.5 C 226.027,191.906 225.027,192.573 223.5,192.5C 223.973,191.094 224.973,190.427 226.5,190.5 Z"/></g>
<g><path style="opacity:0.016" fill="#fad2cd" d="M 389.5,190.5 C 390.5,190.5 391.5,190.5 392.5,190.5C 392.5,190.833 392.5,191.167 392.5,191.5C 390.565,192.15 388.565,192.483 386.5,192.5C 387.5,191.833 388.5,191.167 389.5,190.5 Z"/></g>
<g><path style="opacity:0.004" fill="#fefffe" d="M 392.5,191.5 C 393.833,192.167 393.833,192.167 392.5,191.5 Z"/></g>
<g><path style="opacity:1" fill="#cd564e" d="M 219.5,119.5 C 220.937,123.108 222.437,126.775 224,130.5C 224.865,135.897 226.032,141.231 227.5,146.5C 228.281,145.263 229.281,144.263 230.5,143.5C 230.833,144.333 231.167,145.167 231.5,146C 231.067,147.928 230.4,149.761 229.5,151.5C 230.831,163.205 232.498,174.705 234.5,186C 232.548,188.074 230.715,190.241 229,192.5C 228.667,193.833 228.333,195.167 228,196.5C 227.667,196.167 227.333,195.833 227,195.5C 224.564,196.355 222.064,197.021 219.5,197.5C 221.367,196.24 222.7,194.573 223.5,192.5C 225.027,192.573 226.027,191.906 226.5,190.5C 227.906,190.027 228.573,189.027 228.5,187.5C 228.557,186.391 228.89,185.391 229.5,184.5C 231.047,182.193 231.713,179.527 231.5,176.5C 231.657,173.186 230.991,170.186 229.5,167.5C 228.197,163.618 227.53,159.618 227.5,155.5C 226.372,150.022 225.039,144.689 223.5,139.5C 223.5,139.167 223.5,138.833 223.5,138.5C 223.279,135.933 222.612,133.599 221.5,131.5C 220.087,128.781 219.42,125.781 219.5,122.5C 219.5,121.5 219.5,120.5 219.5,119.5 Z"/></g>
<g><path style="opacity:0.957" fill="#ca6762" d="M 281.5,178.5 C 281.833,178.5 282.167,178.5 282.5,178.5C 282.5,184.833 282.5,191.167 282.5,197.5C 282.5,199.833 282.5,202.167 282.5,204.5C 284.167,204.5 285.833,204.5 287.5,204.5C 287.5,204.833 287.5,205.167 287.5,205.5C 285.167,206.833 282.833,206.833 280.5,205.5C 281.386,198.543 281.72,191.543 281.5,184.5C 281.5,182.5 281.5,180.5 281.5,178.5 Z"/></g>
<g><path style="opacity:0.775" fill="#ebaca5" d="M 363.5,191.5 C 371.132,192.358 378.799,192.691 386.5,192.5C 378.734,195.108 371.067,194.774 363.5,191.5 Z"/></g>
<g><path style="opacity:1" fill="#cc5d56" d="M 90.5,159.5 C 89.9901,164.391 88.9901,169.058 87.5,173.5C 85.9177,176.876 85.2511,180.542 85.5,184.5C 85.5557,189.731 84.889,194.731 83.5,199.5C 80.6502,213.749 79.9835,228.082 81.5,242.5C 81.5,243.167 81.5,243.833 81.5,244.5C 80.7414,250.51 82.0748,255.843 85.5,260.5C 85.5,261.5 85.5,262.5 85.5,263.5C 83.5,263.5 81.5,263.5 79.5,263.5C 73.7969,263.625 68.1302,263.292 62.5,262.5C 62.1667,261.833 61.8333,261.167 61.5,260.5C 68.7444,262.516 76.0778,262.849 83.5,261.5C 82.066,259.78 81.2326,257.78 81,255.5C 79.2709,234.842 79.2709,214.176 81,193.5C 81.6667,192.833 82.3333,192.167 83,191.5C 83.9747,182.777 85.3081,174.11 87,165.5C 87.5995,163.09 88.7662,161.09 90.5,159.5 Z"/></g>
<g><path style="opacity:0.42" fill="#f1c2ba" d="M 281.5,184.5 C 281.72,191.543 281.386,198.543 280.5,205.5C 279.861,204.903 279.528,204.07 279.5,203C 280.066,196.676 280.732,190.509 281.5,184.5 Z"/></g>
<g><path style="opacity:0.357" fill="#f2b0ab" d="M 183.5,194.5 C 184.931,195.78 185.598,197.447 185.5,199.5C 184.069,198.22 183.402,196.553 183.5,194.5 Z"/></g>
<g><path style="opacity:1" fill="#e8a29e" d="M 199.5,193.5 C 203.693,196.197 208.36,197.197 213.5,196.5C 211.393,197.468 209.059,197.802 206.5,197.5C 204.396,197.799 202.396,197.466 200.5,196.5C 199.873,195.583 199.539,194.583 199.5,193.5 Z"/></g>
<g><path style="opacity:1" fill="#cc6d68" d="M 223.5,192.5 C 222.7,194.573 221.367,196.24 219.5,197.5C 215.003,198.457 210.67,198.457 206.5,197.5C 209.059,197.802 211.393,197.468 213.5,196.5C 217.052,195.724 220.386,194.391 223.5,192.5 Z"/></g>
<g><path style="opacity:1" fill="#ce746d" d="M 316.5,191.5 C 316.5,194.5 316.5,197.5 316.5,200.5C 316.389,201.117 316.056,201.617 315.5,202C 311.49,202.501 307.49,203.001 303.5,203.5C 303.5,203.167 303.5,202.833 303.5,202.5C 303.611,201.883 303.944,201.383 304.5,201C 307.817,200.502 311.15,200.335 314.5,200.5C 314.068,197.123 314.735,194.123 316.5,191.5 Z"/></g>
<g><path style="opacity:1" fill="#d5665d" d="M 264.5,192.5 C 260.833,196.833 256.833,200.833 252.5,204.5C 252.227,202.549 252.893,201.049 254.5,200C 254.043,199.586 253.709,199.086 253.5,198.5C 254.689,197.571 256.022,197.238 257.5,197.5C 257.286,195.856 257.62,194.356 258.5,193C 260.473,192.505 262.473,192.338 264.5,192.5 Z"/></g>
<g><path style="opacity:0.004" fill="#fefffe" d="M 362.5,198.5 C 363.833,199.167 363.833,199.167 362.5,198.5 Z"/></g>
<g><path style="opacity:0.004" fill="#fefffe" d="M 122.5,199.5 C 123.833,200.167 123.833,200.167 122.5,199.5 Z"/></g>
<g><path style="opacity:0.976" fill="#d98780" d="M 303.5,202.5 C 303.5,202.833 303.5,203.167 303.5,203.5C 298.24,204.632 292.907,205.299 287.5,205.5C 287.5,205.167 287.5,204.833 287.5,204.5C 292.675,202.915 298.009,202.248 303.5,202.5 Z"/></g>
<g><path style="opacity:0.004" fill="#fefffe" d="M 263.5,203.5 C 264.833,204.167 264.833,204.167 263.5,203.5 Z"/></g>
<g><path style="opacity:0.004" fill="#fefffe" d="M 314.5,205.5 C 315.833,206.167 315.833,206.167 314.5,205.5 Z"/></g>
<g><path style="opacity:1" fill="#d57771" d="M 252.5,204.5 C 246.699,209.401 240.032,212.734 232.5,214.5C 231.167,214.5 229.833,214.5 228.5,214.5C 236.425,211.211 244.425,207.877 252.5,204.5 Z"/></g>
<g><path style="opacity:0.004" fill="#fefffe" d="M 323.5,207.5 C 324.833,208.167 324.833,208.167 323.5,207.5 Z"/></g>
<g><path style="opacity:0.004" fill="#fefffe" d="M 305.5,208.5 C 306.833,209.167 306.833,209.167 305.5,208.5 Z"/></g>
<g><path style="opacity:0.855" fill="#e3a6a2" d="M 193.5,209.5 C 195.404,209.738 196.738,210.738 197.5,212.5C 195.596,212.262 194.262,211.262 193.5,209.5 Z"/></g>
<g><path style="opacity:0.004" fill="#fefffe" d="M 422.5,209.5 C 423.833,210.167 423.833,210.167 422.5,209.5 Z"/></g>
<g><path style="opacity:0.963" fill="#d78882" d="M 163.5,201.5 C 163.5,202.5 163.5,203.5 163.5,204.5C 163.666,210.509 163.499,216.509 163,222.5C 162.617,223.056 162.117,223.389 161.5,223.5C 161.094,215.921 161.761,208.588 163.5,201.5 Z"/></g>
<g><path style="opacity:0.004" fill="#fefffe" d="M 2.5,213.5 C 3.83333,214.167 3.83333,214.167 2.5,213.5 Z"/></g>
<g><path style="opacity:0.475" fill="#f2c1bb" d="M 128.5,183.5 C 128.5,190.167 128.5,196.833 128.5,203.5C 128.5,204.167 128.5,204.833 128.5,205.5C 127.487,212.989 126.82,220.656 126.5,228.5C 125.842,227.207 125.508,225.707 125.5,224C 126.551,210.348 127.551,196.848 128.5,183.5 Z"/></g>
<g><path style="opacity:0.004" fill="#fefffe" d="M 278.5,214.5 C 279.833,215.167 279.833,215.167 278.5,214.5 Z"/></g>
<g><path style="opacity:0.035" fill="#f8cdc9" d="M 228.5,214.5 C 229.833,214.5 231.167,214.5 232.5,214.5C 229.829,216.118 226.829,216.785 223.5,216.5C 225.167,215.833 226.833,215.167 228.5,214.5 Z"/></g>
<g><path style="opacity:0.047" fill="#facac6" d="M 83.5,199.5 C 82.138,213.798 81.4713,228.131 81.5,242.5C 79.9835,228.082 80.6502,213.749 83.5,199.5 Z"/></g>
<g><path style="opacity:0.408" fill="#f6c2bb" d="M 201.5,214.5 C 202.833,214.5 204.167,214.5 205.5,214.5C 206.609,215.29 207.942,215.79 209.5,216C 214.155,216.499 218.821,216.666 223.5,216.5C 218.684,217.65 213.684,217.816 208.5,217C 205.896,216.61 203.562,215.776 201.5,214.5 Z"/></g>
<g><path style="opacity:0.986" fill="#cf726c" d="M 128.5,205.5 C 128.5,212.5 128.5,219.5 128.5,226.5C 139.479,225.28 150.479,224.28 161.5,223.5C 150.737,226.043 139.737,228.043 128.5,229.5C 127.584,229.457 126.917,229.124 126.5,228.5C 126.82,220.656 127.487,212.989 128.5,205.5 Z"/></g>
<g><path style="opacity:0.004" fill="#fefffe" d="M 224.5,228.5 C 225.833,229.167 225.833,229.167 224.5,228.5 Z"/></g>
<g><path style="opacity:0.004" fill="#fefffe" d="M 260.5,233.5 C 261.833,234.167 261.833,234.167 260.5,233.5 Z"/></g>
<g><path style="opacity:0.004" fill="#fefffe" d="M 176.5,235.5 C 177.833,236.167 177.833,236.167 176.5,235.5 Z"/></g>
<g><path style="opacity:0.004" fill="#fefffe" d="M 176.5,245.5 C 177.833,246.167 177.833,246.167 176.5,245.5 Z"/></g>
<g><path style="opacity:0.004" fill="#fefffe" d="M 257.5,248.5 C 258.833,249.167 258.833,249.167 257.5,248.5 Z"/></g>
<g><path style="opacity:0.992" fill="#e59a96" d="M 50.5,213.5 C 50.3335,223.506 50.5002,233.506 51,243.5C 53.0268,247.228 54.1934,251.228 54.5,255.5C 50.9808,249.774 49.1475,243.441 49,236.5C 48.2782,228.615 48.7782,220.949 50.5,213.5 Z"/></g>
<g><path style="opacity:0.004" fill="#fefffe" d="M 332.5,250.5 C 333.833,251.167 333.833,251.167 332.5,250.5 Z"/></g>
<g><path style="opacity:0.604" fill="#efb5b1" d="M 81.5,244.5 C 82.1858,249.871 83.5191,255.204 85.5,260.5C 82.0748,255.843 80.7414,250.51 81.5,244.5 Z"/></g>
<g><path style="opacity:0.525" fill="#f4ccc7" d="M 55.5,257.5 C 57.4044,257.738 58.7377,258.738 59.5,260.5C 57.5956,260.262 56.2623,259.262 55.5,257.5 Z"/></g>
<g><path style="opacity:0.004" fill="#fefffe" d="M 401.5,260.5 C 402.833,261.167 402.833,261.167 401.5,260.5 Z"/></g>
<g><path style="opacity:0.271" fill="#f6c6c0" d="M 59.5,260.5 C 60.1667,260.5 60.8333,260.5 61.5,260.5C 61.8333,261.167 62.1667,261.833 62.5,262.5C 60.9731,262.573 59.9731,261.906 59.5,260.5 Z"/></g>
<g><path style="opacity:0.954" fill="#d48d89" d="M 62.5,262.5 C 68.1302,263.292 73.7969,263.625 79.5,263.5C 79.5,263.833 79.5,264.167 79.5,264.5C 73.624,266.012 67.9574,265.345 62.5,262.5 Z"/></g>
<g><path style="opacity:0.616" fill="#e3aca6" d="M 85.5,260.5 C 87.1042,261.287 87.7709,262.62 87.5,264.5C 84.8033,265.63 82.1367,265.63 79.5,264.5C 79.5,264.167 79.5,263.833 79.5,263.5C 81.5,263.5 83.5,263.5 85.5,263.5C 85.5,262.5 85.5,261.5 85.5,260.5 Z"/></g>
<g><path style="opacity:0.004" fill="#fefffe" d="M 419.5,271.5 C 420.833,272.167 420.833,272.167 419.5,271.5 Z"/></g>
</svg>
